# xmcd
#
# Track frame offsets: 
#        150
#        16429
#        34300
#        49343
#        65406
#        81090
#        97092
#        111211
#        128649
#        142155
#        156319
#        172030
#        187002
#        200830
#        217038
#        231012
#
# Disc length: 3314 seconds
#
# Revision: 0
# Processed by: cddbd v1.5.2PL0 Copyright (c) Steve Scherf et al.
# Submitted via: ExactAudioCopy v0.99pb5
#
DISCID=f60cf010
DTITLE=Silent Night - Christmas Vocal Lullabies
DYEAR=2007
DGENRE=A Cappella
TTITLE0=The First Noel
TTITLE1=Do You Hear What I Hear?
TTITLE2=What Child Is This?
TTITLE3=Angels We Have Heard on High
TTITLE4=O Holy Night
TTITLE5=We Three Kings
TTITLE6=O Little Town of Bethlehem
TTITLE7=It Came Upon a Midnight Clear
TTITLE8=Joy to the World
TTITLE9=O Come, O Come Emmanuel
TTITLE10=Angels from the Realms of Glory
TTITLE11=Away in a Manger 
TTITLE12=O Come All Ye Faithful 
TTITLE13=I Wonder As I Wander
TTITLE14=Hark! The Herald Angels Sing
TTITLE15=Silent Night
EXTD=
EXTT0=
EXTT1=
EXTT2=
EXTT3=
EXTT4=
EXTT5=
EXTT6=
EXTT7=
EXTT8=
EXTT9=
EXTT10=
EXTT11=
EXTT12=
EXTT13=
EXTT14=
EXTT15=
PLAYORDER=
